# xmcd
#
# Track frame offsets: 
#        150
#        16903
#        30233
#        51365
#        68818
#        97138
#        115443
#        131480
#        154538
#        192988
#
# Disc length: 2834 seconds
#
# Revision: 0
# Processed by: cddbd v1.5.2PL0 Copyright (c) Steve Scherf et al.
# Submitted via: ExactAudioCopy v0.95b3
#
DISCID=810b100a
DTITLE=Chi-Lites - A Lonely Man
DYEAR=1972
DGENRE=Soul
TTITLE0=Oh Girl
TTITLE1=Living In The Footsteps Of Another Man
TTITLE2=Love Is
TTITLE3=Being In Love
TTITLE4=A Lonely Man
TTITLE5=The Man and The Woman (The Boy and The Girl)
TTITLE6=Ain't Too Much Of Nothin'
TTITLE7=Inner City Blues (Make Me Wanna Holler)
TTITLE8=The Coldest Days Of My Life
TTITLE9=The Coldest Days Of My Life (Part 1)
EXTD=
EXTT0=
EXTT1=
EXTT2=
EXTT3=
EXTT4=
EXTT5=
EXTT6=
EXTT7=
EXTT8=
EXTT9=
PLAYORDER=
